/* XPM */
static char * jwbfs_xpm[] = {
"48 48 197 2",
"  	c None",
". 	c #FFFFFF",
"+ 	c #FEFEFE",
"@ 	c #F8F8F8",
"# 	c #FAFAFA",
"$ 	c #818181",
"% 	c #090909",
"& 	c #080808",
"* 	c #B0B0B0",
"= 	c #EBEBEB",
"- 	c #AAAAAA",
"; 	c #A9A9A9",
"> 	c #000000",
", 	c #010101",
"' 	c #030303",
") 	c #E9E9E9",
"! 	c #FCFCFC",
"~ 	c #4D4D4D",
"{ 	c #B6B6B6",
"] 	c #F9F9F9",
"^ 	c #141414",
"/ 	c #020202",
"( 	c #7D7D7D",
"_ 	c #E3E3E3",
": 	c #E5E5E5",
"< 	c #E4E4E4",
"[ 	c #BBBBBB",
"} 	c #070707",
"| 	c #F4F4F4",
"1 	c #1F1F1F",
"2 	c #C1C1C1",
"3 	c #BDBDBD",
"4 	c #0B0B0B",
"5 	c #181818",
"6 	c #DCDCDC",
"7 	c #E8E8E8",
"8 	c #D9D9D9",
"9 	c #343434",
"0 	c #BABABA",
"a 	c #BFBFBF",
"b 	c #1C1C1C",
"c 	c #767676",
"d 	c #484848",
"e 	c #9D9D9D",
"f 	c #D5D5D5",
"g 	c #969696",
"h 	c #545454",
"i 	c #7F7F7F",
"j 	c #5B5B5B",
"k 	c #CFCFCF",
"l 	c #5E5E5E",
"m 	c #F3F3F3",
"n 	c #616161",
"o 	c #6B6B6B",
"p 	c #FBFBFB",
"q 	c #222222",
"r 	c #626262",
"s 	c #EFEFEF",
"t 	c #242424",
"u 	c #979797",
"v 	c #363636",
"w 	c #888888",
"x 	c #898989",
"y 	c #6E6E6E",
"z 	c #040404",
"A 	c #585858",
"B 	c #868686",
"C 	c #8D8D8D",
"D 	c #111111",
"E 	c #777777",
"F 	c #F1F1F1",
"G 	c #202020",
"H 	c #101010",
"I 	c #EEEEEE",
"J 	c #414141",
"K 	c #2C2C2C",
"L 	c #0A0A0A",
"M 	c #ECECEC",
"N 	c #D7D7D7",
"O 	c #C0C0C0",
"P 	c #1B1B1B",
"Q 	c #161616",
"R 	c #535353",
"S 	c #D8D8D8",
"T 	c #0E0E0E",
"U 	c #F2F2F2",
"V 	c #C6C6C6",
"W 	c #282828",
"X 	c #BCBCBC",
"Y 	c #959595",
"Z 	c #A8A8A8",
"` 	c #0D0D0D",
" .	c #565656",
"..	c #424242",
"+.	c #949494",
"@.	c #DDDDDD",
"#.	c #3F3F3F",
"$.	c #1E1E1E",
"%.	c #151515",
"&.	c #999999",
"*.	c #DEDEDE",
"=.	c #848484",
"-.	c #CACACA",
";.	c #FDFDFD",
">.	c #FDFEFD",
",.	c #E6E6E6",
"'.	c #A2A2A2",
").	c #989797",
"!.	c #C5C5C5",
"~.	c #A1A1A1",
"{.	c #C9C9C9",
"].	c #929292",
"^.	c #929091",
"/.	c #949293",
"(.	c #8E8D8D",
"_.	c #8F8D8E",
":.	c #C0BEBF",
"<.	c #939292",
"[.	c #959394",
"}.	c #8F8C8D",
"|.	c #8D8C8C",
"1.	c #8F8C8E",
"2.	c #8D8B8C",
"3.	c #D9D8D8",
"4.	c #8E8C8D",
"5.	c #E8E7E8",
"6.	c #E4E3E4",
"7.	c #8E8D8E",
"8.	c #989697",
"9.	c #8E8E8E",
"0.	c #CBCBCB",
"a.	c #8E8C8E",
"b.	c #C4C3C3",
"c.	c #B5B3B4",
"d.	c #9E9E9E",
"e.	c #A19FA0",
"f.	c #B4B4B4",
"g.	c #BBB9BA",
"h.	c #A9A8A8",
"i.	c #F6F6F6",
"j.	c #9C9C9C",
"k.	c #939293",
"l.	c #939192",
"m.	c #F2F1F1",
"n.	c #DADADA",
"o.	c #D0D0D0",
"p.	c #D2D2D2",
"q.	c #969495",
"r.	c #908E8F",
"s.	c #F5F5F5",
"t.	c #A9A8A9",
"u.	c #D2D1D2",
"v.	c #918F90",
"w.	c #EDECED",
"x.	c #ECEDED",
"y.	c #EDEDED",
"z.	c #ECEBEB",
"A.	c #CBCACB",
"B.	c #BCBABB",
"C.	c #AEACAD",
"D.	c #9E9C9D",
"E.	c #BBBABB",
"F.	c #A9A7A8",
"G.	c #CFCECF",
"H.	c #908F8F",
"I.	c #908C8E",
"J.	c #F7F6F6",
"K.	c #9C9B9B",
"L.	c #E7E6E6",
"M.	c #E7E7E7",
"N.	c #9C9B9C",
"O.	c #BFBEBE",
"P.	c #CBCACA",
"Q.	c #BEBEBE",
"R.	c #BFBEBF",
"S.	c #A2A0A1",
"T.	c #B1AFB0",
"U.	c #B1B1B1",
"V.	c #DFDEDF",
"W.	c #E3E2E3",
"X.	c #E3E2E2",
"Y.	c #FCFBFB",
"Z.	c #A6A5A5",
"`.	c #D0CFCF",
" +	c #F5F4F4",
".+	c #A8A6A7",
"++	c #D8D7D7",
"@+	c #979596",
"#+	c #D8D7D8",
"$+	c #8F8F8F",
"%+	c #8E8E8D",
"&+	c #C0BFBF",
"*+	c #D0CFD0",
"=+	c #C1C0C0",
"-+	c #E0E0E0",
";+	c #D7D6D6",
">+	c #D5D4D4",
". . . . . . . . . . . . . . . . . . . . . . . . . . . . . . . . . . . . . . . . . . . . . . + . ",
". . . . . . . . . . . . . . . . . . . . . . . . . . . . . @ # . . . . . . . . . . . . . . . + . ",
". . . . . . . . . . . . . . . . . . . . . . . . . . . . $ % & * . . . . . . . . . . . . . . + . ",
". . . . . . . . . . . . . . . . . . . . . . = - ; ; ; $ > > , ' ) . . . . . . . . . . . . . + . ",
". . . . . . . . . . . . . . . . . . . . ! ~ > > > > > > , > > > { . . . . . . . . . . . . . + . ",
". . . . . . . . . . . . . . . . . . . ] ^ / ( _ : : < [ > , , } | . . . . . . . . . . . . . + . ",
". . . . . . . . . . . . . . . . . . + 1 > 2 . . . . . . 3 4 5 6 . . . . . . . . . . . . . . + . ",
". . . . . . 7 8 . . . . . . . . . . 9 > 0 . . . . . . . . . . . . . . . . . . . . . . . . . + . ",
". . . . a b > > 4 c . . . . . . . d > e . . . . . . . . . . . . . . . . . . . . . . . . . . + . ",
". . . f > > > > , > g . . . . . h > i . . . . . . . . . . . . . . . . . . . . . . . j k . . + . ",
". . . l , > > > > , > = | m = n > o p m m m m m m m m m m m m m m m m m m m m m m . q > r s . . ",
". . . t > > > > > > > , , , , > > , , , , , , , , , , , , , , , , , , , , , , , , , , > , > u . ",
". . . v > > > > > > > ( w w w w w w w x y z > A B B B B B B B B B B B B B B B B B C D , > E F . ",
". . . C , > > > > > G . . . . . . . . . . < H D I . . . . . . . . . . . . . . . . . b J f . + . ",
". . . p K > , , > L M . . . . . . . . . . . N & % I . . . . . . . . . . . . . . . . O . . . + . ",
". . . . . ( P Q R . . . . . . . . . . . . . . S ' T U . . . . . . . . . . . . . . . . . . . + . ",
". . . . . . + + . . . . . . . . . . . . . . . . 8 ' 5 . . . . . . | S S S N I . . . . . . . + . ",
". . . . . . . . . . . . . . . . . . . . . . . . . V ' W . . . . . X > > > > Y . . . . . . . + . ",
". . . . . . . . . . . . . . . . . . . . . . . . . . Z z `  .j j j ..> > > > +.. . . . . . . + . ",
". . . . . . . . . . . . . . . . . . . . . . . . . . . @.#.G $.$.G %.> > > > Y . . . . . . . + . ",
". . . . . . . . . . . . . . . . . . . . . . . . . . . . . . . . . 3 > > > > &.. . . . . . . + . ",
". . . . . . . . . . . . . . . . . . . . . . . . . . . . . . . . . *.B B B =.-.. . . . . . . + . ",
". . . . . . . . . . . . . . . . . . . . . . . . . . . . . . . . . . . . . . . . . . . . . . + . ",
". . . . . . . . . . . . . . . . . . . . . . . . . . . . . . . . . . . . . . . . . . . . . . + . ",
". . . . . . . . . . . . . . . . . . . . . . . . . . . . . . . . . . . . . . . . . . . . . . + . ",
". . . . . . . . . . . . . . . . . . . . . . . . . . . . . . . . . . . . . . . . . . . . . . + . ",
". . . . . . . . . . . . . . . ;.>.. . . . . . . . . . . . . . ,.'.).!.+ . . . : ~.&.{.. . . + . ",
". . ;.].^.^./.. . . . . . . 2 (._.:.. . . . . . . /.^.^.<.;.. [.}.}._.,.. . ] |.1.}.2.3.. . + . ",
". . + u }.4._.5.. . . . . < 4.4._.4.6.. . . . . 7 4.7.4.8.+ . 9.1.7.4.0.. . F (.a.7.4.b.. . . . ",
". . . [ 4.4._.c.. . . . . d.(._._.4.e.. . . . . f.4._.4.g.. . h.4.4.2.i.. . . j.4.}._.# . . . . ",
". . . F 4._._.k.+ . . . p _._._._._.7.p . . . + l._._.4.m.. . ;.n.o.F . . . . . 8 p.m . . . . . ",
". . . . q._._.r.p . . . s._._._.4._._.s.. . . p r._.4.q.. . . . . . . . . . . . . . . . . . . . ",
". . . . t.4._._.I . . . u.4._.r.v._.4.p.. . . I _._._.t.. . . F w.x.x.;.. . . y.x.x.z.+ . . . . ",
". . . . A.4.4.4.B.. . . e 4.4.C.C._._.D.. . . E.4._.4.A.. . . F.4.(.(.i.. . . u (.4.4.i.. . . . ",
". . . . @ 2.4._.r.. . ] 7._._.G.G._.4.4.] . . H._._.2.@ . . . F.7.I._.i.. . . ).}.I.4.J.. . . . ",
". . . . . K._.1.(.| . L.4.4.4.) ) 4._.4.M.. | 4._.}.N.. . . . Z 1.7.7.i.. . . ).4.7.4.i.. . . . ",
". . . . . O.4._.4.: . P.1._.v.. . v._.}.-.. : 4.4._.Q.. . . . Z 1._._.i.. . . ).4._.4.i.. . . . ",
". . . . . *.4._.4.R.. S.4._.T.. . U._.4.S.. Q.1.4.4.V.. . . . Z 1._._.i.. . . ).4._.4.i.. . . . ",
". . . . . p 4.4._.).. 2.4.4.W.. . X.(._.4.. Y 1.4.4.Y.. . . . Z 1._._.i.. . . ).4._.4.i.. . . . ",
". . . . . . Z._._.4.`.4.4._. +. . | C 1.4.`.4.4._..+. . . . . Z 1._._.i.. . . ).4._.4.i.. . . . ",
". . . . . . ++a._.4.@+4.4.v.. . . . H.4.4.@+4.4._.#+. . . . . Z 1._._.i.. . . ).4._.4.i.. . . . ",
". . . . . . s (.a._.4._.4.[ . . . . 0 4._.4._._.4.s . . . . . Z 1._._.i.. . . ).4._.4.i.. . . . ",
". . . . . . + $+4._._.4._.F . . . . U _.7._._.4.v.+ . . . . . Z 1._._.i.. . . ).4._.4.i.. . . . ",
". . . . . . . a %+4._.4.[.+ . . . . + k.}.4.4._.&+. . . . . . Z 1._._.i.. . . ).4._.4.i.. . . . ",
". . . . . . . p (.4.4.4.`.. . . . . . *+4._.4.r.p . . . . . . Z 1._._.i.. . . ).4._.4.i.. . . . ",
". . . . . . . . @ `.=+7 . . . . . . . . M.=+*+@ . . . . . . . -+;+;+;+p . . . 3.;+;+>+! . . . . ",
". . . . . . . . . . . . . . . . . . . . . . . . . . . . . . . . . . . . . . . . . . . . . . . . ",
". . . . . . . . . . . . . . . . . . . . . . . . . . . . . . . . . . . . . . . . . . . . . . . . "};
